<svg xmlns="http://www.w3.org/2000/svg" xmlns:xlink="http://www.w3.org/1999/xlink" viewBox="0 0 186.91 71.25"><defs><style>.cls-1{isolation:isolate;}.cls-2,.cls-9{fill:#fff;}.cls-3,.cls-7{opacity:0.5;}.cls-10,.cls-11,.cls-12,.cls-15,.cls-3,.cls-4,.cls-5,.cls-6,.cls-7,.cls-8{mix-blend-mode:screen;}.cls-3{fill:url(#radial-gradient);}.cls-10,.cls-11,.cls-12,.cls-4,.cls-5,.cls-6,.cls-8{opacity:0.25;}.cls-4{fill:url(#radial-gradient-2);}.cls-5{fill:url(#radial-gradient-3);}.cls-6{fill:url(#radial-gradient-4);}.cls-7{fill:url(#radial-gradient-5);}.cls-8{fill:url(#radial-gradient-6);}.cls-9{mix-blend-mode:multiply;}.cls-10{fill:url(#radial-gradient-7);}.cls-11{fill:url(#radial-gradient-8);}.cls-12{fill:url(#radial-gradient-9);}.cls-13{fill:url(#linear-gradient);}.cls-14{fill:url(#새_그라디언트_견본_4);}.cls-15{opacity:0.7;fill:url(#radial-gradient-10);}.cls-16{fill:#ed1b23;}</style><radialGradient id="radial-gradient" cx="320.49" cy="165.12" r="2.77" gradientTransform="translate(-2154.68 -1066.19) scale(6.73)" gradientUnits="userSpaceOnUse"><stop offset="0" stop-color="#fff"/><stop offset="1" stop-color="#221e1f"/></radialGradient><radialGradient id="radial-gradient-2" cx="322.14" cy="168.63" r="1.43" xlink:href="#radial-gradient"/><radialGradient id="radial-gradient-3" cx="328.64" cy="158.79" r="2.12" xlink:href="#radial-gradient"/><radialGradient id="radial-gradient-4" cx="328.58" cy="164.26" r="2.07" xlink:href="#radial-gradient"/><radialGradient id="radial-gradient-5" cx="331.03" cy="167.27" r="1.04" xlink:href="#radial-gradient"/><radialGradient id="radial-gradient-6" cx="330.11" cy="168.66" r="1.92" xlink:href="#radial-gradient"/><radialGradient id="radial-gradient-7" cx="324.73" cy="163.92" r="0.98" xlink:href="#radial-gradient"/><radialGradient id="radial-gradient-8" cx="325.52" cy="168.74" r="1.3" xlink:href="#radial-gradient"/><radialGradient id="radial-gradient-9" cx="5532.09" cy="4639.1" r="1.44" gradientTransform="translate(37221.12 31213.02) rotate(180) scale(6.73)" xlink:href="#radial-gradient"/><linearGradient id="linear-gradient" x1="85.85" y1="16.72" x2="16.26" y2="34.94" gradientUnits="userSpaceOnUse"><stop offset="0" stop-color="#cf1f27"/><stop offset="0.48" stop-color="#a11d20"/><stop offset="0.59" stop-color="#a41d21"/><stop offset="0.68" stop-color="#af1e22"/><stop offset="0.77" stop-color="#c01e25"/><stop offset="0.83" stop-color="#cf1f27"/><stop offset="0.93" stop-color="#991b1e"/><stop offset="0.95" stop-color="#961b1e"/><stop offset="0.96" stop-color="#8d1a1c"/><stop offset="0.97" stop-color="#7d181a"/><stop offset="0.98" stop-color="#671617"/><stop offset="0.99" stop-color="#4a1313"/><stop offset="1" stop-color="#321010"/></linearGradient><linearGradient id="새_그라디언트_견본_4" x1="35.48" y1="10.19" x2="72.26" y2="41.05" gradientUnits="userSpaceOnUse"><stop offset="0" stop-color="#b81f24"/><stop offset="0.02" stop-color="#d71e26"/><stop offset="0.03" stop-color="#dd3131"/><stop offset="0.07" stop-color="#e95544"/><stop offset="0.09" stop-color="#f06b51"/><stop offset="0.11" stop-color="#f37355"/><stop offset="0.28" stop-color="#f05041"/><stop offset="0.48" stop-color="#ed2126"/><stop offset="0.71" stop-color="#ed2126"/><stop offset="1" stop-color="#d71e26"/></linearGradient><radialGradient id="radial-gradient-10" cx="323.08" cy="163.04" r="9.91" gradientTransform="translate(-2154.68 -1066.19) scale(6.73)" gradientUnits="userSpaceOnUse"><stop offset="0" stop-color="#000101"/><stop offset="0.24" stop-color="#fff"/><stop offset="0.76" stop-color="#fff"/><stop offset="0.78" stop-color="#fafafa"/><stop offset="0.81" stop-color="#ececec"/><stop offset="0.85" stop-color="#d4d5d5"/><stop offset="0.88" stop-color="#b3b4b4"/><stop offset="0.91" stop-color="#898989"/><stop offset="0.95" stop-color="#555656"/><stop offset="0.99" stop-color="#191a1a"/><stop offset="1" stop-color="#000101"/></radialGradient></defs><title>자산 2</title><g class="cls-1"><g id="레이어_2" data-name="레이어 2"><g id="Layer_1" data-name="Layer 1"><path class="cls-2" d="M41.19,58.77,27.54,42,47.37,17.53H36.54c-4.86,0-8.19,1.48-11.14,4.94L15,35.33V0H4.46A4.47,4.47,0,0,0,0,4.48V70.39H10.49A4.47,4.47,0,0,0,15,65.91V48.37l8.5,10.43,7.22,8.9A6.74,6.74,0,0,0,36,70.38H50.65Z"/><path class="cls-2" d="M47,68.18c-.85-.94-4.22-5.37-8.44-10.36C32.93,51.23,27.23,43.68,25.81,42,28,39.32,42.23,21.79,43.93,19.72l.74-.88H36a13.1,13.1,0,0,0-9.44,4.32L14.06,38.51a.25.25,0,0,1-.18.08.24.24,0,0,1-.24-.24v-37H4.46A3.17,3.17,0,0,0,1.31,4.49v64.6h9.18a3.17,3.17,0,0,0,3.15-3.18V45a.23.23,0,0,1,.24-.23.25.25,0,0,1,.17.07l10.52,13,7.33,9a6.17,6.17,0,0,0,4.39,2.26h11.5Z"/><path class="cls-2" d="M68.1,70.39c-8.1,0-13.67-5.57-13.67-13.66V4.47A4.48,4.48,0,0,1,58.9,0H69.4V53.93a4,4,0,0,0,4,4H84.09v8a4.49,4.49,0,0,1-4.48,4.48Z"/><path class="cls-2" d="M68.1,69.09c-7.37,0-12.36-5-12.36-12.36V4.47A3.17,3.17,0,0,1,58.9,1.3h9.19V53.93a5.33,5.33,0,0,0,5.32,5.33h9.37v6.65a3.17,3.17,0,0,1-3.17,3.18Z"/><rect class="cls-3" x="1.31" y="22.85" width="0.18" height="46.16"/><path class="cls-4" d="M2.44,69.09h8.19a3.2,3.2,0,0,0,3-3.31V45.22h-.19V65.78a3.07,3.07,0,0,1-2.82,3.11H2.44Z"/><path class="cls-5" d="M55.93,22.47V4.26a3,3,0,0,1,2.78-2.77h9.2l.18-.19H58.71a3.22,3.22,0,0,0-3,3V22.47Z"/><path class="cls-6" d="M55.93,57V22.62h-.19V57Z"/><path class="cls-7" d="M67.89,53.31a8.14,8.14,0,0,0,.18,1.89,5.3,5.3,0,0,0,1.72,2.87,6,6,0,0,0,4.09,1.38h8.86v-.19h-9a5.34,5.34,0,0,1-5.53-4.11,8.52,8.52,0,0,1-.14-1.85Z"/><path class="cls-8" d="M79.47,68.9H67.93C60.85,68.89,56,64.09,56,57h-.19c0,7.16,4.93,12.06,12.11,12.06H79.47Z"/><path class="cls-9" d="M55.74,34.4H68.09V26.49H55.74Z"/><path class="cls-10" d="M25.72,42s16.56-20.38,18.4-22.63h-.24L25.55,41.94Z"/><path class="cls-9" d="M35.9,18.73a12.72,12.72,0,0,0-9.16,4.18L14.3,38.22l11.53,3.69S42.61,21.25,44.48,19C42.24,19,35.9,18.73,35.9,18.73Z"/><path class="cls-11" d="M32.1,67a6,6,0,0,0,4.15,2.08H46.36l-.17-.19H36.25A6.76,6.76,0,0,1,32.1,67Z"/><path class="cls-12" d="M12.52,1.32H4.33a3.19,3.19,0,0,0-3,3.3v21H1.5v-21A3.08,3.08,0,0,1,4.33,1.5h8.19Z"/><path class="cls-13" d="M74.41,19.28l-39.16,0c-5.31,0-8.81,1.88-11.28,4.88l-7.58,9.35s0,0,0,0a17.41,17.41,0,0,1,10.4-3.34H74.41c6,0,11.84-1.85,11.84-6.61a40.56,40.56,0,0,0-.54-7.37S82.87,19.28,74.41,19.28Z"/><path class="cls-14" d="M16.49,33.4l8.77-10.79c2.16-2.65,5-5.11,11-5.11H74.41c8.07,0,10.88-2.86,10.91-2.88l.93-1v9.94a4.1,4.1,0,0,1-1.19,2.87c-1.85,2-5.43,3-10.65,3H26.71A16.12,16.12,0,0,0,16.49,33.4Z"/><path class="cls-15" d="M86.18,24.08c-.05,1-1.31,5.17-11.77,5.17h-47a15.41,15.41,0,0,0-10.91,4.07l-.08.09a16.16,16.16,0,0,1,11-3.95h47c11.79,0,11.77-5.37,11.77-5.37Z"/><path class="cls-16" d="M136.93,21.72a23.49,23.49,0,0,1,.16-2.47,12.52,12.52,0,0,1,.67-2.94,7,7,0,0,1,1.51-2.46,3.44,3.44,0,0,1,2.59-1h6a6.47,6.47,0,0,0-.95,1.9,14.23,14.23,0,0,0-.67,2.71,25.16,25.16,0,0,0-.28,4.13v44a5.14,5.14,0,0,1-.56,2.46,3.56,3.56,0,0,1-2.38,1.51,27.1,27.1,0,0,1-3.58.71c-1.48.21-3.06.4-4.73.56s-3.32.28-5,.36-3,.09-4.21,0q-6.43-.33-10.09-4.33a15.84,15.84,0,0,1-4-10.21c0-.85-.09-1.8-.11-2.86s0-2.14,0-3.22,0-2.16,0-3.22.06-2,.11-2.86a23.69,23.69,0,0,1,1-5.6,12.5,12.5,0,0,1,7.31-8.15A18,18,0,0,1,127,29.5c1.43,0,3.08.06,5,.16s3.54.24,5,.4Zm0,17c-1.43-.21-3.1-.38-5-.52a48,48,0,0,0-4.92-.12,6.31,6.31,0,0,0-3.06.8,6,6,0,0,0-1.87,1.79,7.2,7.2,0,0,0-1,2.42,15.72,15.72,0,0,0-.4,2.7c-.11,1.43-.16,2.94-.16,4.53s0,3.1.16,4.53q.31,4.21,1.59,5.92c.85,1.14,2.36,1.73,4.53,1.79a47.46,47.46,0,0,0,5.68-.2,24.86,24.86,0,0,0,4.49-.76Z"/><path class="cls-16" d="M161.88,61.92q5.48.07,11,0a10.64,10.64,0,0,0,3.42-.63,2.3,2.3,0,0,0,1.43-2.39,2.67,2.67,0,0,0-.64-1.79,5.72,5.72,0,0,0-2.3-1.39l-12.56-4.45c-3.07-1.16-5.23-2.62-6.47-4.36a10.51,10.51,0,0,1-1.87-6.28,9.61,9.61,0,0,1,3.58-8q3.57-2.87,9.93-3c1.27-.05,2.63-.08,4.09-.08s2.82,0,4.09.08a26.75,26.75,0,0,0,5.44-.2,12.85,12.85,0,0,0,4-1.23v5.09a3.69,3.69,0,0,1-.72,2.3,5.42,5.42,0,0,1-1.94,1.59,9.93,9.93,0,0,1-2.82.91,14.65,14.65,0,0,1-3.34.2c-1.38,0-2.86-.08-4.45-.08s-3.07,0-4.45.08a7.33,7.33,0,0,0-3.18.64,2.27,2.27,0,0,0-.48,3.41,8.2,8.2,0,0,0,2.23,1.2l12.24,4.37a16.58,16.58,0,0,1,6.27,3.93,9.55,9.55,0,0,1,2.47,7.19,10.55,10.55,0,0,1-1.24,5.32,10.05,10.05,0,0,1-3.33,3.5,14.79,14.79,0,0,1-4.93,2,29.49,29.49,0,0,1-6,.59h-9.29a12.78,12.78,0,0,1-3.78-.47,5.71,5.71,0,0,1-2.3-1.31,4.24,4.24,0,0,1-1.12-1.83,8,8,0,0,1-.27-2.11V61.21c0-.32.16-.43.47-.32a16.3,16.3,0,0,0,3.06.67A36.34,36.34,0,0,0,161.88,61.92Z"/></g></g></g></svg>