<svg xmlns="http://www.w3.org/2000/svg" viewBox="0 0 74 86.86"><defs><style>.cls-1{fill:#fff;}</style></defs><title>자산 1</title><g id="레이어_2" data-name="레이어 2"><g id="레이어_1-2" data-name="레이어 1"><g id="레이어_2-2" data-name="레이어 2"><g id="레이어_1-2-2" data-name="레이어 1-2"><path class="cls-1" d="M37.58,58.54a.8.8,0,0,0,.34-.07L48.59,54.3a.94.94,0,0,0,.6-.82,1,1,0,0,0-.5-.88L38.28,47a1,1,0,0,0-.45-.11,1,1,0,0,0-.33.06l-.23.09a.94.94,0,0,0-.61.88V57.6a.94.94,0,0,0,.94.94Z"/><path class="cls-1" d="M51.9,56.75a.8.8,0,0,0-.34.07l-17,6.66L33.21,64h0V46.47a.94.94,0,0,0-.93-.94,1,1,0,0,0-.34.06L17.07,51.26a.93.93,0,0,0-.6.87V85.86a1,1,0,0,0,.94,1,.85.85,0,0,0,.38-.09L52.28,71.51a.94.94,0,0,0,.56-.86v-13A.94.94,0,0,0,51.9,56.75Z"/><path class="cls-1" d="M15.32,48.19,28.88,43a.94.94,0,0,0,.5-1.23,1,1,0,0,0-.38-.44L18.8,36.11a.91.91,0,0,0-.43-.1,1.13,1.13,0,0,0-.32.05L4.47,41a1,1,0,0,0-.62.82.92.92,0,0,0,.5.89l10.19,5.45a1,1,0,0,0,.45.11A.94.94,0,0,0,15.32,48.19Z"/><path class="cls-1" d="M12.54,51,1.39,45a1,1,0,0,0-.45-.12.94.94,0,0,0-.94.94V79.28a.91.91,0,0,0,.48.81l11,6.21A1,1,0,0,0,12.85,86a.93.93,0,0,0,.15-.56V51.83A.94.94,0,0,0,12.54,51Z"/><path class="cls-1" d="M36.17,40a.93.93,0,0,0,.29,0h.17a1,1,0,0,0,.64-.89V29.3a.9.9,0,0,0-.27-.66,1,1,0,0,0-1-.22L25.35,32.51a.94.94,0,0,0-.6.82,1,1,0,0,0,.5.88l10.47,5.63A1,1,0,0,0,36.17,40Z"/><path class="cls-1" d="M22,30.06a1,1,0,0,0,.35-.06l17-6.67,1.36-.53V40.35a.94.94,0,0,0,.94.94,1,1,0,0,0,.34-.06l14.87-5.68a.94.94,0,0,0,.61-.87V.94A.94.94,0,0,0,56.55,0a1,1,0,0,0-.38.08L21.66,15.3a.94.94,0,0,0-.56.86v13A.94.94,0,0,0,22,30.06Z"/><path class="cls-1" d="M69.6,44.11,59.4,38.68a.85.85,0,0,0-.44-.11,1,1,0,0,0-.34.06L45.07,43.77A.92.92,0,0,0,44.51,45a.91.91,0,0,0,.46.52L55.15,50.7a.91.91,0,0,0,.43.1.87.87,0,0,0,.32-.06l13.57-4.91a.95.95,0,0,0,.13-1.72Z"/><path class="cls-1" d="M73.47,6.72,62.52.56a.93.93,0,0,0-.46-.12c-.45,0-1.15.35-1.15.93V35a1,1,0,0,0,.49.83l11.16,6A.86.86,0,0,0,73,42a1,1,0,0,0,1-1V7.54A1,1,0,0,0,73.47,6.72Z"/></g></g></g></g></svg>